<?xml version="1.0" encoding="UTF-8" standalone="no"?>
<!DOCTYPE svg PUBLIC "-//W3C//DTD SVG 1.1//EN"
"http://www.w3.org/Graphics/SVG/1.1/DTD/svg11.dtd">
<svg viewBox="0 0 1466 825" version="1.1" xmlns="http://www.w3.org/2000/svg" xmlns:xlink="http://www.w3.org/1999/xlink">
<defs>
<clipPath id="c0"><path d="M0,825V0H1466.7V825Z"/></clipPath>
<style type="text/css"><![CDATA[
.g0{
fill: #FFFFFF;
}
.g1{
fill: none;
stroke: #000000;
stroke-width: 1.527;
stroke-linecap: butt;
stroke-linejoin: miter;
}
]]></style>
</defs>
<path clip-path="url(#c0)" fill-rule="evenodd" d="M0,825H1466.7V0H0V825Z" class="g0"/>
<path fill-rule="evenodd" d="M92.8,42.3C92.8,36.1,97.9,31,104.1,31h218c6.3,0,11.4,5.1,11.4,11.3V87.8c0,6.3,-5.1,11.4,-11.4,11.4h-218C97.9,99.2,92.8,94.1,92.8,87.8Z" class="g0"/>
<path d="M92.8,42.3C92.8,36.1,97.9,31,104.1,31h218c6.3,0,11.4,5.1,11.4,11.3V87.8c0,6.3,-5.1,11.4,-11.4,11.4h-218C97.9,99.2,92.8,94.1,92.8,87.8Z" class="g1"/>
<path fill-rule="evenodd" d="M418.2,42.3c0,-6.2,5.1,-11.3,11.4,-11.3h932.9c6.3,0,11.4,5.1,11.4,11.3V87.8c0,6.3,-5.1,11.4,-11.4,11.4H429.6c-6.3,0,-11.4,-5.1,-11.4,-11.4Z" class="g0"/>
<path d="M418.2,42.3c0,-6.2,5.1,-11.3,11.4,-11.3h932.9c6.3,0,11.4,5.1,11.4,11.3V87.8c0,6.3,-5.1,11.4,-11.4,11.4H429.6c-6.3,0,-11.4,-5.1,-11.4,-11.4Z" class="g1"/>
<path fill-rule="evenodd" d="M702.4,562.7h15.4V129.4h31V562.7h15.5l-31,44.7Z" class="g0"/>
<path d="M702.4,562.7h15.4V129.4h31V562.7h15.5l-31,44.7Z" class="g1"/>
<path fill-rule="evenodd" d="M205.7,206.3c0,-10.4,8.4,-18.7,18.7,-18.7H612.1c10.4,0,18.8,8.3,18.8,18.7v74.9c0,10.3,-8.4,18.7,-18.8,18.7H224.4c-10.3,0,-18.7,-8.4,-18.7,-18.7Z" class="g0"/>
<path d="M205.7,206.3c0,-10.4,8.4,-18.7,18.7,-18.7H612.1c10.4,0,18.8,8.3,18.8,18.7v74.9c0,10.3,-8.4,18.7,-18.8,18.7H224.4c-10.3,0,-18.7,-8.4,-18.7,-18.7Z" class="g1"/>
<path fill-rule="evenodd" d="M828.5,262.5c0,-10.3,8.4,-18.7,18.7,-18.7h387.7c10.4,0,18.7,8.4,18.7,18.7v74.8c0,10.4,-8.3,18.7,-18.7,18.7H847.2c-10.3,0,-18.7,-8.3,-18.7,-18.7Z" class="g0"/>
<path d="M828.5,262.5c0,-10.3,8.4,-18.7,18.7,-18.7h387.7c10.4,0,18.7,8.4,18.7,18.7v74.8c0,10.4,-8.3,18.7,-18.7,18.7H847.2c-10.3,0,-18.7,-8.3,-18.7,-18.7Z" class="g1"/>
<path fill-rule="evenodd" d="M205.7,375.1c0,-10.3,8.4,-18.7,18.7,-18.7H612.1c10.4,0,18.8,8.4,18.8,18.7v74.8c0,10.3,-8.4,18.7,-18.8,18.7H224.4c-10.3,0,-18.7,-8.4,-18.7,-18.7Z" class="g0"/>
<path d="M205.7,375.1c0,-10.3,8.4,-18.7,18.7,-18.7H612.1c10.4,0,18.8,8.4,18.8,18.7v74.8c0,10.3,-8.4,18.7,-18.8,18.7H224.4c-10.3,0,-18.7,-8.4,-18.7,-18.7Z" class="g1"/>
<path fill-rule="evenodd" d="M828.5,431.2c0,-10.3,8.4,-18.7,18.7,-18.7h387.7c10.3,0,18.7,8.4,18.7,18.7v75c0,10.3,-8.4,18.7,-18.7,18.7H847.2c-10.3,0,-18.7,-8.4,-18.7,-18.7Z" class="g0"/>
<path d="M828.5,431.2c0,-10.3,8.4,-18.7,18.7,-18.7h387.7c10.3,0,18.7,8.4,18.7,18.7v75c0,10.3,-8.4,18.7,-18.7,18.7H847.2c-10.3,0,-18.7,-8.4,-18.7,-18.7Z" class="g1"/>
<path fill-rule="evenodd" d="M244,675.8c0,-10.3,8.4,-18.7,18.7,-18.7h1003c10.3,0,18.7,8.4,18.7,18.7v74.9c0,10.4,-8.4,18.8,-18.7,18.8H262.7c-10.3,0,-18.7,-8.4,-18.7,-18.8Z" class="g0"/>
<path d="M244,675.8c0,-10.3,8.4,-18.7,18.7,-18.7h1003c10.3,0,18.7,8.4,18.7,18.7v74.9c0,10.4,-8.4,18.8,-18.7,18.8H262.7c-10.3,0,-18.7,-8.4,-18.7,-18.8Z" class="g1"/>
</svg>