<?xml version="1.0" encoding="UTF-8" standalone="no"?>
<!DOCTYPE svg PUBLIC "-//W3C//DTD SVG 1.1//EN"
"http://www.w3.org/Graphics/SVG/1.1/DTD/svg11.dtd">
<svg viewBox="0 0 1466 825" version="1.1" xmlns="http://www.w3.org/2000/svg" xmlns:xlink="http://www.w3.org/1999/xlink">
<defs>
<clipPath id="c0"><path d="M0,825V0H1466.7V825Z"/></clipPath>
<style type="text/css"><![CDATA[
.g0{
fill: #FFFFFF;
}
.g1{
fill: none;
stroke: #000000;
stroke-width: 1.527;
stroke-linecap: butt;
stroke-linejoin: miter;
}
]]></style>
</defs>
<path clip-path="url(#c0)" fill-rule="evenodd" d="M0,825H1466.7V0H0V825Z" class="g0"/>
<path fill-rule="evenodd" d="M137.5,46.8C137.5,35.4,146.8,26,158.3,26H410c11.5,0,20.8,9.4,20.8,20.8v83.3c0,11.5,-9.3,20.8,-20.8,20.8H158.3c-11.5,0,-20.8,-9.3,-20.8,-20.8Z" class="g0"/>
<path d="M137.5,46.8C137.5,35.4,146.8,26,158.3,26H410c11.5,0,20.8,9.4,20.8,20.8v83.3c0,11.5,-9.3,20.8,-20.8,20.8H158.3c-11.5,0,-20.8,-9.3,-20.8,-20.8Z" class="g1"/>
<path fill-rule="evenodd" d="M462.9,47.1c0,-7.4,6,-13.4,13.4,-13.4h839.5c7.4,0,13.4,6,13.4,13.4v53.7c0,7.4,-6,13.4,-13.4,13.4H476.3c-7.4,0,-13.4,-6,-13.4,-13.4Z" class="g0"/>
<path d="M462.9,47.1c0,-7.4,6,-13.4,13.4,-13.4h839.5c7.4,0,13.4,6,13.4,13.4v53.7c0,7.4,-6,13.4,-13.4,13.4H476.3c-7.4,0,-13.4,-6,-13.4,-13.4Z" class="g1"/>
<path fill-rule="evenodd" d="M702.4,584.1h15.4V150.9h31V584.1h15.5l-31,44.7Z" class="g0"/>
<path d="M702.4,584.1h15.4V150.9h31V584.1h15.5l-31,44.7Z" class="g1"/>
<path fill-rule="evenodd" d="M205.7,206.3c0,-10.4,8.4,-18.7,18.7,-18.7H612.1c10.4,0,18.8,8.3,18.8,18.7v74.9c0,10.3,-8.4,18.7,-18.8,18.7H224.4c-10.3,0,-18.7,-8.4,-18.7,-18.7Z" class="g0"/>
<path d="M205.7,206.3c0,-10.4,8.4,-18.7,18.7,-18.7H612.1c10.4,0,18.8,8.3,18.8,18.7v74.9c0,10.3,-8.4,18.7,-18.8,18.7H224.4c-10.3,0,-18.7,-8.4,-18.7,-18.7Z" class="g1"/>
<path fill-rule="evenodd" d="M828.5,262.7c0,-10.3,8.4,-18.7,18.7,-18.7h387.7c10.3,0,18.7,8.4,18.7,18.7v75c0,10.3,-8.4,18.7,-18.7,18.7H847.2c-10.3,0,-18.7,-8.4,-18.7,-18.7Z" class="g0"/>
<path d="M828.5,262.7c0,-10.3,8.4,-18.7,18.7,-18.7h387.7c10.3,0,18.7,8.4,18.7,18.7v75c0,10.3,-8.4,18.7,-18.7,18.7H847.2c-10.3,0,-18.7,-8.4,-18.7,-18.7Z" class="g1"/>
<path fill-rule="evenodd" d="M205.7,375.1c0,-10.3,8.4,-18.7,18.7,-18.7H612.1c10.4,0,18.8,8.4,18.8,18.7v74.8c0,10.3,-8.4,18.7,-18.8,18.7H224.4c-10.3,0,-18.7,-8.4,-18.7,-18.7Z" class="g0"/>
<path d="M205.7,375.1c0,-10.3,8.4,-18.7,18.7,-18.7H612.1c10.4,0,18.8,8.4,18.8,18.7v74.8c0,10.3,-8.4,18.7,-18.8,18.7H224.4c-10.3,0,-18.7,-8.4,-18.7,-18.7Z" class="g1"/>
<path fill-rule="evenodd" d="M828.5,431.2c0,-10.3,8.4,-18.7,18.7,-18.7h387.7c10.3,0,18.7,8.4,18.7,18.7v75c0,10.3,-8.4,18.7,-18.7,18.7H847.2c-10.3,0,-18.7,-8.4,-18.7,-18.7Z" class="g0"/>
<path d="M828.5,431.2c0,-10.3,8.4,-18.7,18.7,-18.7h387.7c10.3,0,18.7,8.4,18.7,18.7v75c0,10.3,-8.4,18.7,-18.7,18.7H847.2c-10.3,0,-18.7,-8.4,-18.7,-18.7Z" class="g1"/>
<path fill-rule="evenodd" d="M137.5,682.4c0,-10.3,8.4,-18.7,18.7,-18.7H1310.4c10.4,0,18.8,8.4,18.8,18.7v74.9c0,10.4,-8.4,18.8,-18.8,18.8H156.2c-10.3,0,-18.7,-8.4,-18.7,-18.8Z" class="g0"/>
<path d="M137.5,682.4c0,-10.3,8.4,-18.7,18.7,-18.7H1310.4c10.4,0,18.8,8.4,18.8,18.7v74.9c0,10.4,-8.4,18.8,-18.8,18.8H156.2c-10.3,0,-18.7,-8.4,-18.7,-18.8Z" class="g1"/>
</svg>