<?xml version="1.0" encoding="UTF-8" standalone="no"?>
<!DOCTYPE svg PUBLIC "-//W3C//DTD SVG 1.1//EN"
"http://www.w3.org/Graphics/SVG/1.1/DTD/svg11.dtd">
<svg viewBox="0 0 825 1466" version="1.1" xmlns="http://www.w3.org/2000/svg" xmlns:xlink="http://www.w3.org/1999/xlink">
<defs>
<clipPath id="c0"><path d="M0,1466.6V0H825V1466.6Z"/></clipPath>
<style type="text/css"><![CDATA[
.g0{
fill: #FFFFFF;
}
.g1{
fill: none;
stroke: #000000;
stroke-width: 1.515;
stroke-linecap: butt;
stroke-linejoin: miter;
stroke-miterlimit: 3;
}
]]></style>
</defs>
<g clip-path="url(#c0)">
<path fill-rule="evenodd" d="M0,0H825V1466.6H0V0Z" class="g0"/>
<path fill-rule="evenodd" d="M0,0H825V1466.7H0V0Z" class="g0"/>
</g>
<path fill-rule="evenodd" d="M49.8,66.6c0,-5.1,1.3,-10.1,3.9,-14.5c2.5,-4.4,6.2,-8,10.5,-10.5C68.6,39,73.6,37.7,78.7,37.7H194.1c5.1,0,10.1,1.4,14.5,3.9c4.4,2.5,8,6.2,10.5,10.5c2.6,4.5,3.9,9.4,3.9,14.5V182.1c0,5,-1.3,10,-3.8,14.4c-2.6,4.4,-6.2,8,-10.6,10.6c-4.4,2.5,-9.4,3.9,-14.5,3.9H78.6c-5,0,-10,-1.4,-14.4,-3.9c-4.4,-2.6,-8,-6.2,-10.5,-10.6c-2.6,-4.4,-3.9,-9.4,-3.9,-14.4V66.6Z" class="g0"/>
<path d="M49.8,66.6c0,-5.1,1.3,-10.1,3.9,-14.5c2.5,-4.4,6.2,-8,10.5,-10.5C68.6,39,73.6,37.7,78.7,37.7H194.1c5.1,0,10.1,1.4,14.5,3.9c4.4,2.5,8,6.2,10.5,10.5c2.6,4.5,3.9,9.4,3.9,14.5V182.1c0,5,-1.3,10,-3.8,14.4c-2.6,4.4,-6.2,8,-10.6,10.6c-4.4,2.5,-9.4,3.9,-14.5,3.9H78.6c-5,0,-10,-1.4,-14.4,-3.9c-4.4,-2.6,-8,-6.2,-10.5,-10.6c-2.6,-4.4,-3.9,-9.4,-3.9,-14.4V66.6Z" class="g1"/>
<path fill-rule="evenodd" d="M260.4,66.6c0,-5.1,1.3,-10.1,3.8,-14.5c2.6,-4.4,6.2,-8,10.6,-10.5c4.4,-2.6,9.4,-3.9,14.4,-3.9h457c5.1,0,10.1,1.4,14.4,3.9c4.5,2.5,8.1,6.2,10.6,10.5c2.6,4.5,3.9,9.4,3.9,14.5V182.1c0,5,-1.3,10,-3.8,14.4c-2.6,4.4,-6.2,8,-10.6,10.6c-4.4,2.5,-9.4,3.9,-14.5,3.9h-457c-5.1,0,-10,-1.4,-14.4,-3.9c-4.4,-2.6,-8.1,-6.2,-10.6,-10.6c-2.5,-4.4,-3.9,-9.4,-3.9,-14.4l.1,-115.5Z" class="g0"/>
<path d="M260.4,66.6c0,-5.1,1.3,-10.1,3.8,-14.5c2.6,-4.4,6.2,-8,10.6,-10.5c4.4,-2.6,9.4,-3.9,14.4,-3.9h457c5.1,0,10.1,1.4,14.4,3.9c4.5,2.5,8.1,6.2,10.6,10.5c2.6,4.5,3.9,9.4,3.9,14.5V182.1c0,5,-1.3,10,-3.8,14.4c-2.6,4.4,-6.2,8,-10.6,10.6c-4.4,2.5,-9.4,3.9,-14.5,3.9h-457c-5.1,0,-10,-1.4,-14.4,-3.9c-4.4,-2.6,-8.1,-6.2,-10.6,-10.6c-2.5,-4.4,-3.9,-9.4,-3.9,-14.4l.1,-115.5Z" class="g1"/>
<path fill-rule="evenodd" d="M395,1156.5h8.8v-907h17.4v907h8.7l-17.4,25.2L395,1156.5Z" class="g0"/>
<path d="M395,1156.5h8.8v-907h17.4v907h8.7l-17.4,25.2L395,1156.5Z" class="g1"/>
<path fill-rule="evenodd" d="M49.8,324c0,-6.3,1.6,-12.4,4.8,-17.9c3.1,-5.4,7.6,-9.9,13.1,-13.1c5.4,-3.1,11.6,-4.7,17.8,-4.7H319c6.3,0,12.4,1.6,17.9,4.8c5.4,3.1,9.9,7.6,13.1,13c3.1,5.5,4.7,11.6,4.7,17.9l.1,142.9c0,6.3,-1.7,12.4,-4.8,17.9c-3.2,5.4,-7.7,9.9,-13.1,13.1c-5.4,3.1,-11.6,4.7,-17.9,4.7l-233.5,.1c-6.2,0,-12.4,-1.7,-17.9,-4.8c-5.4,-3.2,-9.9,-7.7,-13,-13.1c-3.2,-5.4,-4.8,-11.6,-4.8,-17.9V324Z" class="g0"/>
<path d="M49.8,324c0,-6.3,1.6,-12.4,4.8,-17.9c3.1,-5.4,7.6,-9.9,13.1,-13.1c5.4,-3.1,11.6,-4.7,17.8,-4.7H319c6.3,0,12.4,1.6,17.9,4.8c5.4,3.1,9.9,7.6,13.1,13c3.1,5.5,4.7,11.6,4.7,17.9l.1,142.9c0,6.3,-1.7,12.4,-4.8,17.9c-3.2,5.4,-7.7,9.9,-13.1,13.1c-5.4,3.1,-11.6,4.7,-17.9,4.7l-233.5,.1c-6.2,0,-12.4,-1.7,-17.9,-4.8c-5.4,-3.2,-9.9,-7.7,-13,-13.1c-3.2,-5.4,-4.8,-11.6,-4.8,-17.9V324Z" class="g1"/>
<path fill-rule="evenodd" d="M49.8,1274.7c0,-5.1,1.3,-10,3.9,-14.4c2.5,-4.4,6.2,-8.1,10.5,-10.6c4.4,-2.5,9.4,-3.9,14.5,-3.9l667.5,.1c5.1,0,10.1,1.3,14.4,3.8c4.5,2.6,8.1,6.2,10.6,10.6c2.6,4.4,3.9,9.4,3.9,14.4v115.5c0,5.1,-1.3,10,-3.8,14.4c-2.6,4.4,-6.2,8.1,-10.6,10.6c-4.4,2.5,-9.4,3.9,-14.5,3.9H78.6c-5,0,-10,-1.4,-14.4,-3.9c-4.4,-2.5,-8,-6.2,-10.5,-10.5c-2.6,-4.5,-3.9,-9.4,-3.9,-14.5V1274.7Z" class="g0"/>
<path d="M49.8,1274.7c0,-5.1,1.3,-10,3.9,-14.4c2.5,-4.4,6.2,-8.1,10.5,-10.6c4.4,-2.5,9.4,-3.9,14.5,-3.9l667.5,.1c5.1,0,10.1,1.3,14.4,3.8c4.5,2.6,8.1,6.2,10.6,10.6c2.6,4.4,3.9,9.4,3.9,14.4v115.5c0,5.1,-1.3,10,-3.8,14.4c-2.6,4.4,-6.2,8.1,-10.6,10.6c-4.4,2.5,-9.4,3.9,-14.5,3.9H78.6c-5,0,-10,-1.4,-14.4,-3.9c-4.4,-2.5,-8,-6.2,-10.5,-10.5c-2.6,-4.5,-3.9,-9.4,-3.9,-14.5V1274.7Z" class="g1"/>
<path fill-rule="evenodd" d="M470.1,479.5c0,-6.2,1.7,-12.4,4.8,-17.8c3.2,-5.5,7.7,-10,13.1,-13.1c5.4,-3.1,11.6,-4.8,17.9,-4.8H739.3c6.3,0,12.5,1.7,17.9,4.8c5.4,3.1,9.9,7.6,13.1,13.1c3.1,5.4,4.8,11.6,4.8,17.8v143c0,6.2,-1.6,12.4,-4.8,17.8c-3.1,5.5,-7.6,10,-13.1,13.1c-5.4,3.1,-11.5,4.8,-17.8,4.8H505.9c-6.3,0,-12.5,-1.6,-17.9,-4.8c-5.4,-3.1,-9.9,-7.6,-13.1,-13.1c-3.1,-5.4,-4.8,-11.5,-4.8,-17.8v-143Z" class="g0"/>
<path d="M470.1,479.5c0,-6.2,1.7,-12.4,4.8,-17.8c3.2,-5.5,7.7,-10,13.1,-13.1c5.4,-3.1,11.6,-4.8,17.9,-4.8H739.3c6.3,0,12.5,1.7,17.9,4.8c5.4,3.1,9.9,7.6,13.1,13.1c3.1,5.4,4.8,11.6,4.8,17.8v143c0,6.2,-1.6,12.4,-4.8,17.8c-3.1,5.5,-7.6,10,-13.1,13.1c-5.4,3.1,-11.5,4.8,-17.8,4.8H505.9c-6.3,0,-12.5,-1.6,-17.9,-4.8c-5.4,-3.1,-9.9,-7.6,-13.1,-13.1c-3.1,-5.4,-4.8,-11.5,-4.8,-17.8v-143Z" class="g1"/>
<path fill-rule="evenodd" d="M49.8,615.6c0,-6.3,1.6,-12.4,4.8,-17.9c3.1,-5.4,7.6,-9.9,13.1,-13.1c5.4,-3.1,11.6,-4.7,17.8,-4.7H319c6.3,0,12.4,1.6,17.9,4.8c5.4,3.1,9.9,7.6,13.1,13.1c3.1,5.4,4.7,11.5,4.7,17.8l.1,142.9c0,6.3,-1.7,12.5,-4.8,17.9c-3.2,5.4,-7.7,9.9,-13.1,13.1c-5.4,3.1,-11.6,4.8,-17.9,4.8H85.5c-6.2,0,-12.4,-1.6,-17.9,-4.8c-5.4,-3.1,-9.9,-7.6,-13,-13.1C51.4,771,49.8,764.8,49.8,758.6v-143Z" class="g0"/>
<path d="M49.8,615.6c0,-6.3,1.6,-12.4,4.8,-17.9c3.1,-5.4,7.6,-9.9,13.1,-13.1c5.4,-3.1,11.6,-4.7,17.8,-4.7H319c6.3,0,12.4,1.6,17.9,4.8c5.4,3.1,9.9,7.6,13.1,13.1c3.1,5.4,4.7,11.5,4.7,17.8l.1,142.9c0,6.3,-1.7,12.5,-4.8,17.9c-3.2,5.4,-7.7,9.9,-13.1,13.1c-5.4,3.1,-11.6,4.8,-17.9,4.8H85.5c-6.2,0,-12.4,-1.6,-17.9,-4.8c-5.4,-3.1,-9.9,-7.6,-13,-13.1C51.4,771,49.8,764.8,49.8,758.6v-143Z" class="g1"/>
<path fill-rule="evenodd" d="M470.1,769c0,-6.2,1.7,-12.4,4.8,-17.8c3.2,-5.5,7.7,-10,13.1,-13.1c5.4,-3.1,11.6,-4.8,17.9,-4.8H739.3c6.3,0,12.5,1.7,17.9,4.8c5.4,3.1,9.9,7.6,13.1,13.1c3.1,5.4,4.8,11.6,4.8,17.8V912c0,6.2,-1.6,12.4,-4.8,17.8c-3.1,5.5,-7.6,10,-13.1,13.1c-5.4,3.1,-11.5,4.8,-17.8,4.8H505.9c-6.3,0,-12.5,-1.6,-17.9,-4.8c-5.4,-3.1,-9.9,-7.6,-13.1,-13.1c-3.1,-5.4,-4.8,-11.5,-4.8,-17.8V769Z" class="g0"/>
<path d="M470.1,769c0,-6.2,1.7,-12.4,4.8,-17.8c3.2,-5.5,7.7,-10,13.1,-13.1c5.4,-3.1,11.6,-4.8,17.9,-4.8H739.3c6.3,0,12.5,1.7,17.9,4.8c5.4,3.1,9.9,7.6,13.1,13.1c3.1,5.4,4.8,11.6,4.8,17.8V912c0,6.2,-1.6,12.4,-4.8,17.8c-3.1,5.5,-7.6,10,-13.1,13.1c-5.4,3.1,-11.5,4.8,-17.8,4.8H505.9c-6.3,0,-12.5,-1.6,-17.9,-4.8c-5.4,-3.1,-9.9,-7.6,-13.1,-13.1c-3.1,-5.4,-4.8,-11.5,-4.8,-17.8V769Z" class="g1"/>
<path fill-rule="evenodd" d="M49.8,907.2c0,-6.2,1.6,-12.4,4.8,-17.8c3.1,-5.5,7.6,-10,13.1,-13.1c5.4,-3.1,11.6,-4.8,17.8,-4.8H319c6.3,0,12.4,1.7,17.9,4.8c5.4,3.1,9.9,7.6,13.1,13.1c3.1,5.4,4.7,11.6,4.7,17.8l.1,143c0,6.2,-1.7,12.4,-4.8,17.8c-3.2,5.5,-7.7,10,-13.1,13.1c-5.4,3.1,-11.6,4.8,-17.9,4.8H85.5c-6.2,0,-12.4,-1.6,-17.9,-4.8c-5.4,-3.1,-9.9,-7.6,-13,-13.1c-3.2,-5.4,-4.8,-11.5,-4.8,-17.8v-143Z" class="g0"/>
<path d="M49.8,907.2c0,-6.2,1.6,-12.4,4.8,-17.8c3.1,-5.5,7.6,-10,13.1,-13.1c5.4,-3.1,11.6,-4.8,17.8,-4.8H319c6.3,0,12.4,1.7,17.9,4.8c5.4,3.1,9.9,7.6,13.1,13.1c3.1,5.4,4.7,11.6,4.7,17.8l.1,143c0,6.2,-1.7,12.4,-4.8,17.8c-3.2,5.5,-7.7,10,-13.1,13.1c-5.4,3.1,-11.6,4.8,-17.9,4.8H85.5c-6.2,0,-12.4,-1.6,-17.9,-4.8c-5.4,-3.1,-9.9,-7.6,-13,-13.1c-3.2,-5.4,-4.8,-11.5,-4.8,-17.8v-143Z" class="g1"/>
</svg>